<svg width="61" height="60" viewBox="0 0 61 60" fill="none" xmlns="http://www.w3.org/2000/svg">
<path d="M30.8525 5.625C17.3525 5.625 6.47754 16.5 6.47754 30C6.47754 43.5 17.3525 54.375 30.8525 54.375C44.3525 54.375 55.2275 43.5 55.2275 30C55.2275 27.3787 54.875 24.7631 53.9375 22.3237L50.8925 25.3125C51.2675 26.8125 51.4794 28.3162 51.4794 30C51.4794 41.4412 42.2957 50.625 30.8544 50.625C19.4132 50.625 10.2275 41.4412 10.2275 30C10.2275 18.5587 19.4113 9.375 30.8525 9.375C36.4775 9.375 41.5307 11.6156 45.0913 15.1762L47.7275 12.54C43.415 8.22375 37.415 5.625 30.8525 5.625ZM52.0044 13.6519L30.8525 34.8056L22.8257 26.7769L20.1294 29.4731L29.5044 38.8481L30.8525 40.1362L32.2007 38.8481L54.7007 16.3481L52.0044 13.6519Z" fill="#694E38"/>
</svg>
